<?xml version="1.0" standalone="no"?>
<!DOCTYPE svg PUBLIC "-//W3C//DTD SVG 20010904//EN"
 "http://www.w3.org/TR/2001/REC-SVG-20010904/DTD/svg10.dtd">
<svg version="1.0" xmlns="http://www.w3.org/2000/svg"
 width="1080.000000pt" height="1080.000000pt" viewBox="0 0 1080.000000 1080.000000"
 preserveAspectRatio="xMidYMid meet">
<metadata>
Created by potrace 1.11, written by Peter Selinger 2001-2013
</metadata>
<g transform="translate(0.000000,1080.000000) scale(0.100000,-0.100000)"
fill="#000000" stroke="none">
<path d="M294 10479 c-2 -4 9 -24 24 -45 16 -22 58 -82 93 -134 36 -52 201
-291 365 -530 165 -239 363 -527 439 -640 76 -113 141 -207 144 -210 3 -3 11
-13 16 -22 9 -16 208 -310 390 -578 171 -251 275 -404 476 -704 118 -175 220
-328 228 -340 39 -58 136 -204 151 -226 10 -14 44 -65 76 -115 33 -49 61 -92
64 -95 3 -3 39 -57 80 -120 41 -63 78 -119 83 -125 12 -16 385 -583 477 -726
135 -210 141 -222 126 -250 -56 -109 -630 -983 -1445 -2204 -701 -1049 -1540
-2308 -1646 -2470 -343 -523 -385 -589 -373 -596 6 -4 30 -8 52 -8 23 -1 81
-3 131 -5 255 -12 988 -19 2124 -20 l1264 -1 58 90 c32 50 81 126 109 170 28
44 88 137 133 207 45 70 133 207 196 305 63 98 138 214 166 258 69 107 262
405 344 533 163 254 662 1000 690 1032 36 41 26 49 115 -92 33 -51 78 -122
101 -158 132 -205 485 -761 500 -788 6 -10 64 -103 131 -207 66 -105 161 -253
209 -330 49 -77 104 -165 124 -195 20 -30 38 -60 41 -65 10 -21 105 -170 111
-175 3 -3 12 -16 19 -30 7 -14 32 -54 55 -90 23 -36 86 -135 139 -220 54 -85
107 -168 118 -185 l20 -30 211 -1 c117 -1 579 -5 1027 -9 833 -7 2141 -8 2330
-1 58 3 120 5 138 5 l34 1 -19 32 c-11 18 -26 44 -34 57 -8 14 -18 30 -22 35
-4 6 -66 101 -138 211 -234 358 -339 517 -674 1024 -181 274 -334 506 -340
514 -35 55 -672 1011 -680 1020 -5 7 -62 91 -125 187 -63 96 -117 177 -120
180 -3 3 -11 17 -19 33 -8 15 -18 27 -23 27 -4 0 -8 4 -8 8 0 7 -321 495 -347
527 -4 6 -78 116 -163 245 -85 129 -159 239 -163 245 -5 5 -75 111 -157 235
-82 124 -154 232 -160 240 -58 85 -303 456 -306 465 -3 6 44 83 103 172 60 88
162 241 227 339 66 99 123 181 128 182 4 2 8 8 8 13 0 5 37 64 83 132 46 67
204 302 352 522 148 220 319 474 380 565 62 91 201 298 310 460 109 162 244
363 300 445 56 83 220 326 365 540 146 215 290 428 322 475 32 47 62 92 68
100 19 28 146 215 241 355 53 77 149 219 214 315 65 96 127 186 137 199 10 13
18 29 18 35 0 8 -475 11 -1770 11 -1551 0 -1771 -2 -1783 -15 -8 -8 -114 -172
-237 -365 -123 -192 -238 -372 -255 -400 -18 -27 -120 -187 -227 -355 -415
-650 -521 -817 -553 -865 -18 -27 -79 -123 -136 -212 -56 -89 -104 -161 -105
-160 -1 1 -88 144 -194 317 -106 173 -234 383 -285 465 -236 383 -712 1162
-718 1175 -4 8 -39 65 -77 125 -38 61 -90 144 -115 185 -24 41 -49 82 -54 90
-9 13 -236 15 -1856 15 -1016 0 -1849 -3 -1851 -6z"/>
</g>
</svg>
