<?xml version="1.0" encoding="UTF-8" standalone="no"?>
<!-- Generator: Adobe Illustrator 19.0.0, SVG Export Plug-In . SVG Version: 6.00 Build 0)  -->

<svg
   xmlns:dc="http://purl.org/dc/elements/1.1/"
   xmlns:cc="http://creativecommons.org/ns#"
   xmlns:rdf="http://www.w3.org/1999/02/22-rdf-syntax-ns#"
   xmlns:svg="http://www.w3.org/2000/svg"
   xmlns="http://www.w3.org/2000/svg"
   xmlns:sodipodi="http://sodipodi.sourceforge.net/DTD/sodipodi-0.dtd"
   xmlns:inkscape="http://www.inkscape.org/namespaces/inkscape"
   version="1.1"
   id="Capa_1"
   x="0px"
   y="0px"
   viewBox="0 0 240.82201 132.5965"
   xml:space="preserve"
   sodipodi:docname="next.svg"
   width="240.82201"
   height="132.5965"
   inkscape:version="0.92.4 (5da689c313, 2019-01-14)"><metadata
   id="metadata52"><rdf:RDF><cc:Work
       rdf:about=""><dc:format>image/svg+xml</dc:format><dc:type
         rdf:resource="http://purl.org/dc/dcmitype/StillImage" /><dc:title></dc:title></cc:Work></rdf:RDF></metadata><defs
   id="defs50" /><sodipodi:namedview
   pagecolor="#ffffff"
   bordercolor="#666666"
   borderopacity="1"
   objecttolerance="10"
   gridtolerance="10"
   guidetolerance="10"
   inkscape:pageopacity="0"
   inkscape:pageshadow="2"
   inkscape:window-width="946"
   inkscape:window-height="1032"
   id="namedview48"
   showgrid="false"
   fit-margin-top="0"
   fit-margin-left="0"
   fit-margin-right="0"
   fit-margin-bottom="0"
   inkscape:zoom="0.97997285"
   inkscape:cx="154.59587"
   inkscape:cy="66.297752"
   inkscape:window-x="964"
   inkscape:window-y="38"
   inkscape:window-maximized="0"
   inkscape:current-layer="Capa_1" />
<g
   id="g15"
   transform="rotate(90,147.4675,93.3545)"
   style="fill:#ffffff">
	<path
   id="Chevron_Right_1_"
   d="M 183.189,111.816 74.892,3.555 c -4.752,-4.74 -12.451,-4.74 -17.215,0 -4.752,4.74 -4.752,12.439 0,17.179 l 99.707,99.671 -99.695,99.671 c -4.752,4.74 -4.752,12.439 0,17.191 4.752,4.74 12.463,4.74 17.215,0 L 183.201,129.006 c 4.68,-4.691 4.68,-12.511 -0.012,-17.19 z"
   inkscape:connector-curvature="0"
   style="fill:#ffffff" />
	<g
   id="g3"
   style="fill:#ffffff">
	</g>
	<g
   id="g5"
   style="fill:#ffffff">
	</g>
	<g
   id="g7"
   style="fill:#ffffff">
	</g>
	<g
   id="g9"
   style="fill:#ffffff">
	</g>
	<g
   id="g11"
   style="fill:#ffffff">
	</g>
	<g
   id="g13"
   style="fill:#ffffff">
	</g>
</g>
<g
   id="g17"
   transform="translate(-2.5e-4,-54.11275)">
</g>
<g
   id="g19"
   transform="translate(-2.5e-4,-54.11275)">
</g>
<g
   id="g21"
   transform="translate(-2.5e-4,-54.11275)">
</g>
<g
   id="g23"
   transform="translate(-2.5e-4,-54.11275)">
</g>
<g
   id="g25"
   transform="translate(-2.5e-4,-54.11275)">
</g>
<g
   id="g27"
   transform="translate(-2.5e-4,-54.11275)">
</g>
<g
   id="g29"
   transform="translate(-2.5e-4,-54.11275)">
</g>
<g
   id="g31"
   transform="translate(-2.5e-4,-54.11275)">
</g>
<g
   id="g33"
   transform="translate(-2.5e-4,-54.11275)">
</g>
<g
   id="g35"
   transform="translate(-2.5e-4,-54.11275)">
</g>
<g
   id="g37"
   transform="translate(-2.5e-4,-54.11275)">
</g>
<g
   id="g39"
   transform="translate(-2.5e-4,-54.11275)">
</g>
<g
   id="g41"
   transform="translate(-2.5e-4,-54.11275)">
</g>
<g
   id="g43"
   transform="translate(-2.5e-4,-54.11275)">
</g>
<g
   id="g45"
   transform="translate(-2.5e-4,-54.11275)">
</g>
</svg>